<svg width="512" height="512" viewBox="0 0 512 512" xmlns="http://www.w3.org/2000/svg">
  <defs>
    <linearGradient id="grad1" x1="0%" y1="0%" x2="100%" y2="100%">
      <stop offset="0%" style="stop-color:#667eea;stop-opacity:1" />
      <stop offset="100%" style="stop-color:#764ba2;stop-opacity:1" />
    </linearGradient>
  </defs>
  
  <!-- Background Circle -->
  <circle cx="256" cy="256" r="240" fill="url(#grad1)" stroke="#fff" stroke-width="8"/>
  
  <!-- Coffee Cup -->
  <path d="M180 200 L180 320 Q180 340 200 340 L312 340 Q332 340 332 320 L332 200 Q332 180 312 180 L200 180 Q180 180 180 200 Z" fill="#fff"/>
  
  <!-- Coffee Cup Handle -->
  <path d="M332 220 Q352 220 352 240 Q352 260 332 260" stroke="#fff" stroke-width="12" fill="none"/>
  
  <!-- Steam -->
  <path d="M220 160 Q225 150 230 160 Q235 150 240 160" stroke="#fff" stroke-width="3" fill="none"/>
  <path d="M260 160 Q265 150 270 160 Q275 150 280 160" stroke="#fff" stroke-width="3" fill="none"/>
  <path d="M300 160 Q305 150 310 160 Q315 150 320 160" stroke="#fff" stroke-width="3" fill="none"/>
  
  <!-- App Name -->
  <text x="256" y="420" font-family="Arial, sans-serif" font-size="24" font-weight="bold" text-anchor="middle" fill="#fff">Vending</text>
</svg>
